<svg width="26" height="20" viewBox="0 0 26 20" fill="none" xmlns="http://www.w3.org/2000/svg">
<g clip-path="url(#clip0_65_2091)">
<path d="M22.75 0H3.25005C2.3881 0 1.56145 0.35119 0.951952 0.976311C0.342459 1.60143 4.89155e-05 2.44928 4.89155e-05 3.33333V16.6667C-0.0020604 17.0426 0.0640657 17.4156 0.195049 17.7667C0.451747 18.5144 0.958368 19.1447 1.62505 19.5458C2.11913 19.8392 2.67914 19.9958 3.25005 20H22.75C23.2922 19.9974 23.8252 19.8572 24.3016 19.5918C24.778 19.3264 25.1828 18.9442 25.48 18.4792C25.8165 17.9373 25.9967 17.309 26 16.6667V3.33333C26 2.44928 25.6576 1.60143 25.0481 0.976311C24.4387 0.35119 23.612 0 22.75 0ZM13.4063 17.7792H3.25005C3.13465 17.778 3.0204 17.7554 2.91286 17.7125L8.79536 9.47917L13.6175 14.4208L15.145 15.9875L16.8797 17.7792H13.4063ZM23.8347 16.6667C23.8337 16.9614 23.719 17.2437 23.5159 17.4521C23.3127 17.6605 23.0374 17.7781 22.75 17.7792H19.955L16.705 14.4208L19.4757 11.6125L23.855 16.6125L23.8347 16.6667ZM23.8347 13.2792L20.3125 9.25417C20.2144 9.14426 20.096 9.05531 19.9643 8.99239C19.8325 8.92947 19.6899 8.89383 19.5447 8.8875C19.3977 8.88033 19.2509 8.90564 19.1142 8.96171C18.9775 9.01778 18.8542 9.1033 18.7526 9.2125L15.1694 12.8542L9.43724 6.9875C9.32313 6.87706 9.18827 6.79164 9.04088 6.73648C8.8935 6.68131 8.73669 6.65756 8.58005 6.66667C8.42443 6.68156 8.27358 6.72966 8.13715 6.80787C8.00073 6.88608 7.88175 6.99268 7.78786 7.12083L2.16536 15V3.33333C2.16643 3.03862 2.28105 2.75629 2.48424 2.54789C2.68743 2.33949 2.9627 2.22193 3.25005 2.22083H22.75C23.0374 2.22193 23.3127 2.33949 23.5159 2.54789C23.719 2.75629 23.8337 3.03862 23.8347 3.33333V13.2792Z" fill="#1E1E1E"/>
<path d="M15.1653 10C16.3612 10 17.3306 9.00572 17.3306 7.77918C17.3306 6.55265 16.3612 5.55835 15.1653 5.55835C13.9694 5.55835 13 6.55265 13 7.77918C13 9.00572 13.9694 10 15.1653 10Z" fill="#1E1E1E"/>
</g>
<defs>
<clipPath id="clip0_65_2091">
<rect width="26" height="20" fill="white"/>
</clipPath>
</defs>
</svg>
