<svg width="20" height="20" viewBox="0 0 20 20" fill="none" xmlns="http://www.w3.org/2000/svg">
<g clip-path="url(#clip0_98_1502)">
<g clip-path="url(#clip1_98_1502)">
<path d="M18.4615 18.7736H4.38461L6.40769 18.3321C6.49711 18.3132 6.5788 18.2685 6.6423 18.2038L18.9115 6.16987C19.6011 5.4933 19.9885 4.57572 19.9885 3.61893C19.9885 2.66213 19.6011 1.74455 18.9115 1.06799C18.222 0.391435 17.2867 0.0113525 16.3115 0.0113525C15.3363 0.0113525 14.4011 0.391435 13.7115 1.06799L8.87307 5.81893L1.44615 13.1057C1.38026 13.168 1.33474 13.2482 1.31538 13.3359L0.0538394 18.9057C0.0064317 18.9492 -0.0313529 19.0018 -0.0571567 19.0602C-0.0829644 19.1187 -0.0962375 19.1817 -0.0961606 19.2453C-0.0961606 19.3704 -0.0455068 19.4904 0.0446548 19.5789C0.134816 19.6673 0.257101 19.717 0.384609 19.717H18.4615C18.589 19.717 18.7113 19.6673 18.8015 19.5789C18.8916 19.4904 18.9423 19.3704 18.9423 19.2453C18.9423 19.1202 18.8916 19.0003 18.8015 18.9118C18.7113 18.8233 18.589 18.7736 18.4615 18.7736ZM14.3923 1.73591C14.9023 1.2355 15.5941 0.954379 16.3154 0.954379C16.6725 0.954379 17.0262 1.02339 17.3561 1.15749C17.6861 1.29159 17.9859 1.48813 18.2385 1.73591C18.491 1.98368 18.6913 2.27783 18.828 2.60157C18.9647 2.9253 19.035 3.27228 19.035 3.6227C19.035 3.97311 18.9647 4.3201 18.828 4.64383C18.6913 4.96757 18.491 5.26172 18.2385 5.50949L16.7577 6.96232C16.7577 6.90572 16.7577 6.84911 16.7577 6.79251C16.7577 6.30511 16.6569 5.82278 16.4613 5.37474C16.2657 4.92666 15.9795 4.52228 15.6198 4.18602C15.2602 3.84976 14.8347 3.58866 14.3692 3.41851C13.9036 3.2484 13.4077 3.17278 12.9115 3.19629L14.3923 1.73591ZM15 4.90572C15.4834 5.38191 15.7658 6.01957 15.7907 6.69115C15.8156 7.36278 15.5813 8.01889 15.1346 8.52836C15.1346 8.47553 15.1346 8.42647 15.1346 8.37364C15.1352 7.8861 15.0348 7.40349 14.8394 6.95519C14.644 6.50689 14.3577 6.10228 13.998 5.76591C13.6382 5.42953 13.2125 5.16847 12.7467 4.99855C12.2809 4.82859 11.7848 4.75338 11.2885 4.77742C11.8084 4.33315 12.481 4.09927 13.17 4.12308C13.8591 4.14689 14.5132 4.42666 15 4.90572Z" fill="black"/>
</g>
</g>
<defs>
<clipPath id="clip0_98_1502">
<rect width="20" height="20" fill="white"/>
</clipPath>
<clipPath id="clip1_98_1502">
<rect width="20" height="20" fill="white"/>
</clipPath>
</defs>
</svg>
