<svg width="21" height="20" viewBox="0 0 21 20" fill="none" xmlns="http://www.w3.org/2000/svg">
<g clip-path="url(#clip0_99_1626)">
<path fill-rule="evenodd" clip-rule="evenodd" d="M20.8402 2.79383C20.8402 3.70926 20.0913 4.45817 19.1759 4.45817H15.6508C15.8981 3.96269 16.0375 3.40372 16.0375 2.81216C16.0375 2.206 15.8913 1.63396 15.6323 1.12948H19.1759C20.0913 1.12948 20.8402 1.87839 20.8402 2.79383ZM15.1592 17.1878C15.1592 18.741 13.9001 20 12.3469 20C10.7937 20 9.53473 18.741 9.53473 17.1878C9.53473 15.6348 10.7937 14.3757 12.3469 14.3757C13.9001 14.3757 15.1592 15.6347 15.1592 17.1878ZM20.8564 17.1693C20.8564 18.0848 20.1073 18.8337 19.1918 18.8337H15.6508C15.8981 18.3382 16.0375 17.7792 16.0375 17.1878C16.0375 16.5817 15.8913 16.0096 15.6323 15.5052H19.1918C20.1075 15.5052 20.8564 16.2541 20.8564 17.1693ZM9.04264 18.8337H1.66621C0.750781 18.8337 0.00186719 18.0848 0.00186719 17.1693C0.00186719 16.2539 0.750781 15.505 1.66621 15.505H9.06114C8.80228 16.0095 8.65596 16.5815 8.65596 17.1877C8.65596 17.7792 8.79532 18.3382 9.04264 18.8337ZM4.80819 9.9669C4.80819 11.5199 6.06736 12.7791 7.62052 12.7791C9.17351 12.7791 10.4327 11.5199 10.4327 9.9669C10.4327 8.41374 9.17351 7.15457 7.62052 7.15457C6.06736 7.1544 4.80819 8.41357 4.80819 9.9669ZM0 9.9484C0 10.8638 0.749253 11.6127 1.66435 11.6127H4.3251C4.07778 11.1171 3.93842 10.5656 3.93842 9.9669C3.93842 9.36804 4.08457 8.7887 4.3436 8.28405H1.66435C0.748914 8.28405 0 9.03296 0 9.9484ZM10.9331 11.6127H19.1939C20.1091 11.6127 20.8582 10.8638 20.8582 9.9484C20.8582 9.03279 20.1093 8.28388 19.1939 8.28388H10.9148C11.1736 8.78853 11.3199 9.36787 11.3199 9.96673C11.3199 10.5656 11.1804 11.1171 10.9331 11.6127ZM15.1592 2.81216C15.1592 4.36532 13.9001 5.62432 12.3469 5.62432C10.7937 5.62432 9.53456 4.36549 9.53456 2.81216C9.53456 1.259 10.7936 0 12.3467 0C13.8999 0 15.1592 1.259 15.1592 2.81216ZM9.04264 4.45817H1.67249C0.757061 4.45817 0.00814775 3.70909 0.00814775 2.79383C0.00814775 1.87839 0.757061 1.12948 1.67249 1.12948H9.06114C8.80228 1.63396 8.65596 2.206 8.65596 2.81216C8.65596 3.40372 8.79532 3.96269 9.04264 4.45817Z" fill="black"/>
</g>
<defs>
<clipPath id="clip0_99_1626">
<rect width="20.8582" height="20" fill="white"/>
</clipPath>
</defs>
</svg>
